<mxfile host="app.diagrams.net" modified="2021-11-10T15:11:31.902Z" agent="5.0 (Windows NT 10.0; Win64; x64) AppleWebKit/537.36 (KHTML, like Gecko) Chrome/95.0.4638.69 Safari/537.36" etag="XBt_kWOk1pKrx-G1_uxq" version="15.7.2" type="github">
  <diagram id="nEo6kUSp01PVYiafDKQU" name="Page-1">
    <mxGraphModel dx="1730" dy="912" grid="1" gridSize="10" guides="1" tooltips="1" connect="1" arrows="1" fold="1" page="1" pageScale="1" pageWidth="827" pageHeight="1169" math="0" shadow="0">
      <root>
        <mxCell id="0" />
        <mxCell id="1" parent="0" />
        <mxCell id="XRPx4JUyo4dQfewGKeS4-5" value="Car technical service appointment for regular check-in." style="text;html=1;strokeColor=none;fillColor=none;align=center;verticalAlign=middle;whiteSpace=wrap;rounded=0;" vertex="1" parent="1">
          <mxGeometry x="30" y="20" width="310" height="30" as="geometry" />
        </mxCell>
        <mxCell id="XRPx4JUyo4dQfewGKeS4-6" value="Do customer have an appointment?" style="rounded=1;whiteSpace=wrap;html=1;" vertex="1" parent="1">
          <mxGeometry x="50" y="285" width="120" height="60" as="geometry" />
        </mxCell>
        <mxCell id="XRPx4JUyo4dQfewGKeS4-28" style="edgeStyle=orthogonalEdgeStyle;rounded=0;orthogonalLoop=1;jettySize=auto;html=1;exitX=0.5;exitY=1;exitDx=0;exitDy=0;" edge="1" parent="1" source="XRPx4JUyo4dQfewGKeS4-7" target="XRPx4JUyo4dQfewGKeS4-29">
          <mxGeometry relative="1" as="geometry">
            <mxPoint x="110" y="180" as="targetPoint" />
          </mxGeometry>
        </mxCell>
        <mxCell id="XRPx4JUyo4dQfewGKeS4-7" value="Customers&#39; Waiting Area" style="rounded=1;whiteSpace=wrap;html=1;" vertex="1" parent="1">
          <mxGeometry x="50" y="80" width="120" height="60" as="geometry" />
        </mxCell>
        <mxCell id="XRPx4JUyo4dQfewGKeS4-8" value="" style="rounded=1;whiteSpace=wrap;html=1;" vertex="1" parent="1">
          <mxGeometry x="250" y="235" width="120" height="60" as="geometry" />
        </mxCell>
        <mxCell id="XRPx4JUyo4dQfewGKeS4-16" style="edgeStyle=orthogonalEdgeStyle;rounded=0;orthogonalLoop=1;jettySize=auto;html=1;exitX=1;exitY=0.5;exitDx=0;exitDy=0;" edge="1" parent="1" source="XRPx4JUyo4dQfewGKeS4-9" target="XRPx4JUyo4dQfewGKeS4-17">
          <mxGeometry relative="1" as="geometry">
            <mxPoint x="410" y="345" as="targetPoint" />
          </mxGeometry>
        </mxCell>
        <mxCell id="XRPx4JUyo4dQfewGKeS4-9" value="Customer Entry" style="rounded=1;whiteSpace=wrap;html=1;" vertex="1" parent="1">
          <mxGeometry x="240" y="315" width="120" height="60" as="geometry" />
        </mxCell>
        <mxCell id="XRPx4JUyo4dQfewGKeS4-12" value="Schedule an appointment" style="text;html=1;strokeColor=none;fillColor=none;align=center;verticalAlign=middle;whiteSpace=wrap;rounded=0;" vertex="1" parent="1">
          <mxGeometry x="280" y="255" width="60" height="20" as="geometry" />
        </mxCell>
        <mxCell id="XRPx4JUyo4dQfewGKeS4-14" value="Yes&lt;br&gt;" style="text;html=1;strokeColor=none;fillColor=none;align=center;verticalAlign=middle;whiteSpace=wrap;rounded=0;" vertex="1" parent="1">
          <mxGeometry x="170" y="330" width="60" height="30" as="geometry" />
        </mxCell>
        <mxCell id="XRPx4JUyo4dQfewGKeS4-18" style="edgeStyle=orthogonalEdgeStyle;rounded=0;orthogonalLoop=1;jettySize=auto;html=1;exitX=1;exitY=0.5;exitDx=0;exitDy=0;" edge="1" parent="1" source="XRPx4JUyo4dQfewGKeS4-17" target="XRPx4JUyo4dQfewGKeS4-19">
          <mxGeometry relative="1" as="geometry">
            <mxPoint x="600" y="345" as="targetPoint" />
          </mxGeometry>
        </mxCell>
        <mxCell id="XRPx4JUyo4dQfewGKeS4-17" value="Service Area" style="rounded=1;whiteSpace=wrap;html=1;" vertex="1" parent="1">
          <mxGeometry x="410" y="315" width="120" height="60" as="geometry" />
        </mxCell>
        <mxCell id="XRPx4JUyo4dQfewGKeS4-19" value="Last check before the payment" style="rounded=1;whiteSpace=wrap;html=1;" vertex="1" parent="1">
          <mxGeometry x="530" y="395" width="120" height="60" as="geometry" />
        </mxCell>
        <mxCell id="XRPx4JUyo4dQfewGKeS4-20" value="" style="endArrow=classic;html=1;rounded=0;exitX=0.5;exitY=1;exitDx=0;exitDy=0;" edge="1" parent="1" source="XRPx4JUyo4dQfewGKeS4-19" target="XRPx4JUyo4dQfewGKeS4-21">
          <mxGeometry width="50" height="50" relative="1" as="geometry">
            <mxPoint x="380" y="395" as="sourcePoint" />
            <mxPoint x="590" y="515" as="targetPoint" />
          </mxGeometry>
        </mxCell>
        <mxCell id="XRPx4JUyo4dQfewGKeS4-36" style="edgeStyle=orthogonalEdgeStyle;rounded=0;orthogonalLoop=1;jettySize=auto;html=1;exitX=0.5;exitY=1;exitDx=0;exitDy=0;entryX=0.5;entryY=0;entryDx=0;entryDy=0;" edge="1" parent="1" source="XRPx4JUyo4dQfewGKeS4-21" target="XRPx4JUyo4dQfewGKeS4-35">
          <mxGeometry relative="1" as="geometry" />
        </mxCell>
        <mxCell id="XRPx4JUyo4dQfewGKeS4-21" value="Get customer&#39;s Card ID" style="rounded=1;whiteSpace=wrap;html=1;" vertex="1" parent="1">
          <mxGeometry x="530" y="485" width="120" height="65" as="geometry" />
        </mxCell>
        <mxCell id="XRPx4JUyo4dQfewGKeS4-26" value="No" style="text;html=1;strokeColor=none;fillColor=none;align=center;verticalAlign=middle;whiteSpace=wrap;rounded=0;" vertex="1" parent="1">
          <mxGeometry x="170" y="265" width="60" height="30" as="geometry" />
        </mxCell>
        <mxCell id="XRPx4JUyo4dQfewGKeS4-30" style="edgeStyle=orthogonalEdgeStyle;rounded=0;orthogonalLoop=1;jettySize=auto;html=1;exitX=0.5;exitY=1;exitDx=0;exitDy=0;entryX=0.5;entryY=0;entryDx=0;entryDy=0;" edge="1" parent="1" source="XRPx4JUyo4dQfewGKeS4-29" target="XRPx4JUyo4dQfewGKeS4-6">
          <mxGeometry relative="1" as="geometry" />
        </mxCell>
        <mxCell id="XRPx4JUyo4dQfewGKeS4-29" value="Get customer&#39;s and car&#39;s information" style="rounded=1;whiteSpace=wrap;html=1;" vertex="1" parent="1">
          <mxGeometry x="50" y="175" width="120" height="60" as="geometry" />
        </mxCell>
        <mxCell id="XRPx4JUyo4dQfewGKeS4-32" value="" style="endArrow=classic;html=1;rounded=0;entryX=0;entryY=0.5;entryDx=0;entryDy=0;exitX=0;exitY=0.5;exitDx=0;exitDy=0;" edge="1" parent="1" source="XRPx4JUyo4dQfewGKeS4-9" target="XRPx4JUyo4dQfewGKeS4-8">
          <mxGeometry width="50" height="50" relative="1" as="geometry">
            <mxPoint x="380" y="350" as="sourcePoint" />
            <mxPoint x="430" y="300" as="targetPoint" />
            <Array as="points">
              <mxPoint x="170" y="310" />
            </Array>
          </mxGeometry>
        </mxCell>
        <mxCell id="XRPx4JUyo4dQfewGKeS4-35" value="Payment Completed" style="rounded=1;whiteSpace=wrap;html=1;" vertex="1" parent="1">
          <mxGeometry x="530" y="580" width="120" height="60" as="geometry" />
        </mxCell>
        <mxCell id="XRPx4JUyo4dQfewGKeS4-38" value="" style="endArrow=classic;html=1;rounded=0;exitX=1;exitY=0.5;exitDx=0;exitDy=0;" edge="1" parent="1" source="XRPx4JUyo4dQfewGKeS4-8" target="XRPx4JUyo4dQfewGKeS4-39">
          <mxGeometry width="50" height="50" relative="1" as="geometry">
            <mxPoint x="380" y="280" as="sourcePoint" />
            <mxPoint x="440" y="265" as="targetPoint" />
          </mxGeometry>
        </mxCell>
        <mxCell id="XRPx4JUyo4dQfewGKeS4-39" value="Customer selects the date and time" style="rounded=1;whiteSpace=wrap;html=1;" vertex="1" parent="1">
          <mxGeometry x="414" y="235" width="120" height="60" as="geometry" />
        </mxCell>
        <mxCell id="XRPx4JUyo4dQfewGKeS4-40" value="" style="endArrow=classic;html=1;rounded=0;exitX=1;exitY=0.5;exitDx=0;exitDy=0;" edge="1" parent="1" source="XRPx4JUyo4dQfewGKeS4-39">
          <mxGeometry width="50" height="50" relative="1" as="geometry">
            <mxPoint x="380" y="270" as="sourcePoint" />
            <mxPoint x="590" y="265" as="targetPoint" />
          </mxGeometry>
        </mxCell>
        <mxCell id="XRPx4JUyo4dQfewGKeS4-46" style="edgeStyle=orthogonalEdgeStyle;rounded=0;orthogonalLoop=1;jettySize=auto;html=1;exitX=0.5;exitY=0;exitDx=0;exitDy=0;entryX=1;entryY=0.5;entryDx=0;entryDy=0;" edge="1" parent="1" source="XRPx4JUyo4dQfewGKeS4-45" target="XRPx4JUyo4dQfewGKeS4-29">
          <mxGeometry relative="1" as="geometry" />
        </mxCell>
        <mxCell id="XRPx4JUyo4dQfewGKeS4-45" value="Appointment set" style="rounded=1;whiteSpace=wrap;html=1;" vertex="1" parent="1">
          <mxGeometry x="590" y="240" width="120" height="60" as="geometry" />
        </mxCell>
        <mxCell id="XRPx4JUyo4dQfewGKeS4-47" value="&lt;b&gt;ECEM ÇUHADAR 117202030&lt;br&gt;NARGIZ MAJIDOVA 116202003&lt;br&gt;SELDA KARADAĞ 119202091&lt;/b&gt;" style="text;html=1;strokeColor=none;fillColor=none;align=center;verticalAlign=middle;whiteSpace=wrap;rounded=0;" vertex="1" parent="1">
          <mxGeometry x="570" y="30" width="220" height="60" as="geometry" />
        </mxCell>
      </root>
    </mxGraphModel>
  </diagram>
</mxfile>
